<svg xmlns="http://www.w3.org/2000/svg" xmlns:xlink="http://www.w3.org/1999/xlink" version="1.1" x="0px" y="0px" viewBox="0 0 43.2 43.2" enable-background="new 0 0 43.2 43.2" xml:space="preserve"><circle cx="21.6" cy="21.6" r="21.6"/><path fill="#FFFFFF" d="M33.2 14.4c-0.9 0.4-1.8 0.6-2.7 0.7c1-0.6 1.7-1.5 2.1-2.6c-0.9 0.5-1.9 0.9-3 1.2 c-0.9-0.9-2.1-1.5-3.5-1.5c-2.6 0-4.8 2.1-4.8 4.8c0 0.4 0 0.7 0.1 1.1c-4-0.2-7.5-2.1-9.8-5c-0.4 0.7-0.6 1.5-0.6 2.4 c0 1.7 0.8 3.1 2.1 4c-0.8 0-1.5-0.2-2.2-0.6c0 0 0 0 0 0.1c0 2.3 1.6 4.2 3.8 4.7c-0.4 0.1-0.8 0.2-1.3 0.2c-0.3 0-0.6 0-0.9-0.1 c0.6 1.9 2.4 3.3 4.4 3.3c-1.6 1.3-3.7 2-5.9 2c-0.4 0-0.8 0-1.1-0.1c2.1 1.3 4.6 2.1 7.3 2.1c8.7 0 13.5-7.2 13.5-13.5 c0-0.2 0-0.4 0-0.6C31.7 16.2 32.6 15.4 33.2 14.4z"/></svg>