<svg xmlns="http://www.w3.org/2000/svg" version="1.1" x="0px" y="0px" viewBox="0 0 70.6 68.7" enable-background="new 0 0 70.6 68.7" xml:space="preserve"><path fill="#231F20" d="M65.8 0h-61C2.1 0 0 2.1 0 4.7V64c0 2.6 2.1 4.7 4.8 4.7h61c2.7 0 4.8-2.1 4.8-4.7V4.7C70.6 2.1 68.4 0 65.8 0zM48.8 5.6c0-0.6 0.5-1 1-1h13.2c0.6 0 1 0.5 1 1v12.9c0 0.6-0.5 1-1 1H49.9c-0.6 0-1-0.5-1-1V5.6zM49 35.9c0 7.3-6.1 13.3-13.7 13.3 -7.5 0-13.7-5.9-13.7-13.3 0-0.4 0-0.7 0.1-1.1 0.6-6.8 6.4-12.2 13.6-12.2 7.2 0 13 5.4 13.6 12.2C49 35.2 49 35.5 49 35.9zM64.9 59.2c0 2.2-1.8 3.9-4 3.9H9.7c-2.2 0-4-1.8-4-3.9V34.5h9.5c0 0.4-0.1 0.9-0.1 1.3 0 10.9 9.1 19.7 20.2 19.7s20.2-8.8 20.2-19.7c0-0.5 0-0.9-0.1-1.3h9.4V59.2z"/></svg>