<svg xmlns="http://www.w3.org/2000/svg" version="1.1" x="0px" y="0px" viewBox="0 0 50 50" enable-background="new 0 0 50 50" xml:space="preserve"><path fill="#D3D3D3" d="M0 0v50h50V0H0z M35.7 19.5c0 0.2 0 0.5 0 0.7c0 7.3-5.5 15.7-15.7 15.7c-3.1 0-6-0.9-8.5-2.5 c0.4 0.1 0.9 0.1 1.3 0.1c2.6 0 5-0.9 6.8-2.4c-2.4 0-4.4-1.6-5.1-3.8c0.3 0.1 0.7 0.1 1 0.1c0.5 0 1-0.1 1.5-0.2 c-2.5-0.5-4.4-2.7-4.4-5.4c0 0 0 0 0-0.1c0.7 0.4 1.6 0.7 2.5 0.7c-1.5-1-2.5-2.7-2.5-4.6c0-1 0.3-2 0.7-2.8 c2.7 3.3 6.8 5.5 11.4 5.8c-0.1-0.4-0.1-0.8-0.1-1.3c0-3 2.5-5.5 5.5-5.5c1.6 0 3 0.7 4 1.7c1.3-0.2 2.4-0.7 3.5-1.3 c-0.4 1.3-1.3 2.4-2.4 3.1c1.1-0.1 2.2-0.4 3.2-0.9C37.7 17.8 36.8 18.7 35.7 19.5z"/></svg>
