<svg xmlns="http://www.w3.org/2000/svg" version="1.1" x="0px" y="0px" viewBox="0 0 69 67.3" enable-background="new 0 0 69 67.3" xml:space="preserve"><path fill-rule="evenodd" clip-rule="evenodd" fill="#181616" d="M34.5 0C15.4 0 0 15.4 0 34.5c0 15.2 9.9 28.2 23.6 32.7 1.7 0.3 2.4-0.7 2.4-1.7 0-0.8 0-3 0-5.9 -9.6 2.1-11.6-4.6-11.6-4.6 -1.6-4-3.8-5-3.8-5 -3.1-2.1 0.2-2.1 0.2-2.1 3.5 0.2 5.3 3.6 5.3 3.6 3.1 5.3 8.1 3.7 10 2.9 0.3-2.2 1.2-3.7 2.2-4.6 -7.7-0.9-15.7-3.8-15.7-17 0-3.8 1.3-6.8 3.6-9.3 -0.4-0.9-1.5-4.4 0.3-9.1 0 0 2.9-0.9 9.5 3.5 2.8-0.8 5.7-1.1 8.6-1.2 2.9 0 5.9 0.4 8.6 1.2 6.6-4.5 9.5-3.5 9.5-3.5 1.9 4.7 0.7 8.3 0.3 9.1 2.2 2.4 3.5 5.5 3.5 9.3 0 13.3-8.1 16.2-15.7 17 1.2 1.1 2.3 3.2 2.3 6.4 0 4.6 0 8.3 0 9.5 0 0.9 0.6 2 2.4 1.7C59.1 62.7 69 49.7 69 34.5 69 15.4 53.5 0 34.5 0z"/></svg>