<svg xmlns="http://www.w3.org/2000/svg" xmlns:xlink="http://www.w3.org/1999/xlink" version="1.1" x="0px" y="0px" viewBox="0 0 43.2 43.2" enable-background="new 0 0 43.2 43.2" xml:space="preserve"><circle cx="21.6" cy="21.6" r="21.6"/><path fill="#FFFFFF" d="M30.3 11.8H12.9c-0.8 0-1.4 0.6-1.4 1.3v17c0 0.7 0.6 1.3 1.4 1.3h17.4c0.8 0 1.4-0.6 1.4-1.3v-17 C31.7 12.4 31.1 11.8 30.3 11.8z M25.5 13.4c0-0.2 0.1-0.3 0.3-0.3h3.8c0.2 0 0.3 0.1 0.3 0.3v3.7c0 0.2-0.1 0.3-0.3 0.3h-3.8 c-0.2 0-0.3-0.1-0.3-0.3V13.4z M25.5 22c0 2.1-1.7 3.8-3.9 3.8c-2.2 0-3.9-1.7-3.9-3.8c0-0.1 0-0.2 0-0.3c0.2-2 1.8-3.5 3.9-3.5 c2 0 3.7 1.5 3.9 3.5C25.5 21.8 25.5 21.9 25.5 22z M30.1 28.7c0 0.6-0.5 1.1-1.1 1.1H14.3c-0.6 0-1.1-0.5-1.1-1.1v-7.1h2.7 c0 0.1 0 0.3 0 0.4c0 3.1 2.6 5.6 5.8 5.6c3.2 0 5.8-2.5 5.8-5.6c0-0.1 0-0.3 0-0.4h2.7V28.7z"/></svg>