<svg xmlns="http://www.w3.org/2000/svg" version="1.1" x="0px" y="0px" viewBox="0 0 82.1 66.8" enable-background="new 0 0 82.1 66.8" xml:space="preserve"><path fill="#231F20" d="M82.1 7.9c-3 1.3-6.3 2.2-9.7 2.6 3.5-2.1 6.2-5.4 7.4-9.3C76.6 3.2 73 4.6 69.2 5.3 66.1 2 61.7 0 56.9 0 47.6 0 40 7.5 40 16.9c0 1.3 0.2 2.6 0.4 3.8C26.4 20 14 13.3 5.7 3.1c-1.5 2.5-2.3 5.4-2.3 8.5 0 5.9 3 11 7.5 14 -2.8-0.1-5.4-0.8-7.6-2.1 0 0.1 0 0.1 0 0.2 0 8.2 5.8 15 13.5 16.5 -1.4 0.4-2.9 0.6-4.4 0.6 -1.1 0-2.1-0.1-3.2-0.3 2.1 6.7 8.4 11.6 15.7 11.7 -5.8 4.5-13 7.2-20.9 7.2 -1.4 0-2.7-0.1-4-0.2 7.5 4.8 16.3 7.6 25.8 7.6 31 0 48-25.7 48-48 0-0.7 0-1.5 0-2.2C77 14.3 79.9 11.3 82.1 7.9z"/></svg>