<svg xmlns="http://www.w3.org/2000/svg" xmlns:xlink="http://www.w3.org/1999/xlink" version="1.1" x="0px" y="0px" viewBox="0 0 50 50" enable-background="new 0 0 50 50" xml:space="preserve"><g><path fill="#D3D3D3" d="M25.1 31.5c3.3 0 6-2.6 6-5.9c0-0.2 0-0.3 0-0.5c-0.2-3-2.8-5.4-6-5.4c-3.2 0-5.8 2.4-6 5.4 c0 0.2 0 0.3 0 0.5C19.1 28.9 21.8 31.5 25.1 31.5z"/><path fill="#D3D3D3" d="M31.5 18.4h5.8c0.3 0 0.5-0.2 0.5-0.4v-5.7c0-0.2-0.2-0.4-0.5-0.4h-5.8c-0.3 0-0.5 0.2-0.5 0.4V18 C31.1 18.2 31.3 18.4 31.5 18.4z"/><path fill="#D3D3D3" d="M34 25.7c0 4.8-4 8.7-8.9 8.7c-4.9 0-8.9-3.9-8.9-8.7c0-0.2 0-0.4 0-0.6H12V36c0 1 0.8 1.7 1.8 1.7h22.6 c1 0 1.8-0.8 1.8-1.7V25.1H34C34 25.3 34 25.5 34 25.7z"/><path fill="#D3D3D3" d="M0 0v50h50V0H0z M40.7 38.1c0 1.1-0.9 2.1-2.1 2.1H11.6c-1.2 0-2.1-0.9-2.1-2.1V11.9c0-1.1 0.9-2.1 2.1-2.1 h26.9c1.2 0 2.1 0.9 2.1 2.1V38.1z"/></g></svg>