<svg xmlns="http://www.w3.org/2000/svg" xmlns:xlink="http://www.w3.org/1999/xlink" version="1.1" x="0px" y="0px" viewBox="0 0 50 50" enable-background="new 0 0 50 50" xml:space="preserve"><g><path fill="#D3D3D3" d="M0 0v50h50V0H0z M25 40.2c-8.4 0-15.2-6.8-15.2-15.2c0-8.4 6.8-15.2 15.2-15.2c8.4 0 15.2 6.8 15.2 15.2 C40.2 33.4 33.4 40.2 25 40.2z"/><path fill="#D3D3D3" d="M26.8 12.2c0.1 0 0.3 0 0.4 0.1c-0.2 0.6-1.3 0.2-1.7 0.2c0.3-0.1 0.9-0.3 1.1-0.5c0.2-0.1 0-0.2 0.2-0.3 c-0.6-0.1-1.2-0.1-1.8-0.1c-1 0-1.9 0.1-2.8 0.3h0c-0.2 0.1-0.6 0.5-0.4 0.7c0.2 0.2 0.5-0.1 0.7-0.2c0.5-0.3 1.2-0.3 1.8-0.4 c-0.1 0.3-0.9 0.2-1.2 0.3c-0.4 0.1-0.2 0.2-0.5 0.6c0.1 0 0.2 0.1 0.3 0V13c-0.2 0-0.5-0.1-0.5 0.2c-0.3-0.5-0.5-0.4-0.9 0 c0.3 0.2 0.7 0.4 0.4 0.7c-0.3 0.4-0.5-0.1-0.2-0.3c-0.3-0.1-0.5-0.4-0.8-0.1c0.1 0 0.2 0 0.3 0c-0.1 0.1-0.1 0.3-0.2 0.4 c-0.1 0.1-0.6-0.1-0.7-0.1c-0.4 0-0.7 0-1.1 0c0.1 0.4-0.4 0-0.6-0.1c0.3-0.3 0.7-0.2 1.1-0.2c0.3 0 0.8 0 0.8-0.4 c-0.3-0.1-0.5-0.1-0.7-0.3c-0.1-0.1-0.1-0.2-0.1-0.3c-2.1 0.9-4 2.3-5.4 4.1c0.3 0.2 0.7 0.5 0.8 0.6c0.2 0.2 0.3 0.4 0.5 0.7 c0 0 0.1 0.2 0.2 0.3c0.2 0.2 0.3 0.3 0.3 0.5c0 0.3-0.1 0.5-0.1 0.7c-0.1 0.8 0 1.6 0.7 2.1c0.2 0.2 0.4 0.2 0.6 0.4 c0.2 0.2 0.2 0.3 0.3 0.5c0.3 0.5 0.7 0.9 1 1.4c0.3 0.4 0.4 0.3 0.1-0.1c-0.2-0.3-0.4-0.5-0.6-0.8c0 0-0.2-0.4-0.1-0.4 c0.5 0.1 0.5 0.4 0.8 0.8c0.3 0.4 0.5 0.6 0.7 1c0.2 0.5 0.5 0.7 1 1c0.2 0.1 0.6 0.4 0.9 0.4c0.3 0 0.5-0.2 0.8 0 c0.2 0.1 0.3 0.4 0.6 0.5c0.2 0.1 0.4 0 0.6 0.1c0.3 0.2 0.3 0.5 0.6 0.6c0.2 0.1 0.4 0.3 0.6 0.3c0.2 0 0.3-0.1 0.5 0 c0.3 0.1 0.3 0.4 0.3 0.7c-0.1 0.3-0.4 0.5-0.5 0.8c-0.1 0.3 0 0.5-0.1 0.8c0 0.3-0.3 0 0 0.5c0.1 0.2 0.2 0.4 0.4 0.6 c0.3 0.4 0.4 0.7 0.8 1c0.2 0.2 0.8 0.5 0.9 0.8c0.1 0.3 0 0.9 0 1.2c-0.1 0.6-0.1 1.4-0.3 2c-0.2 0.6-0.4 0.8-0.2 1.4 c0.1 0.3 0.1 0.1 0 0.5c0 0.1 0 0.1 0 0.2c-0.1 0.2-0.3 0.3-0.4 0.6c0.3 0 0.3 0.1 0.2 0.2c0.5 0 1-0.1 1.5-0.2 c-0.1-0.1-0.2-0.2-0.2-0.2c0-0.1 0.3-0.4 0.3-0.5c0.1-0.1 0.1-0.4 0.2-0.6c0.1-0.2 0.5-0.1 0.4-0.5c0.7 0 1-0.1 1.1-0.8 c-0.1-0.1-0.1 0-0.1-0.1c0 0.1 0.5-0.1 0.6 0c0 0.1 0.7-0.8 0.7-0.9c0.2-0.2 0.3-0.3 0.5-0.6c0-0.1 0.1-0.4 0.2-0.5c0 0 0 0 0 0.1 c0.2-0.4 0.5-0.3 0.8-0.5c0.3-0.1 0.1-0.1 0.3-0.3c0.3-0.3 0.4-0.1 0.4-0.6c0.1-0.3 0-0.6 0.1-0.9c0.1-0.4 0.5-0.5 0.7-0.8 c0.2-0.2 0.3-0.6 0.1-0.9c-0.2-0.2-0.7-0.4-1-0.4c-0.3-0.1-0.6-0.1-0.9-0.2c-0.3-0.1-0.6-0.5-0.7 0.1c-0.1 0-0.3-0.2-0.3-0.2 c0 0.1 0.3-0.1 0.4-0.2c-0.1 0-0.6 0.1-0.7 0.1v0c0 0 0.1 0 0.2 0c-0.1 0.1-0.2 0-0.2 0c0 0 0 0 0 0c0 0 0 0 0 0 c0-0.1 0.3-0.4 0.3-0.5c0-0.3-0.4-0.7-0.7-0.8c-0.4-0.1-0.5-0.1-0.8-0.3c-0.4-0.3-0.7-0.6-1.2-0.6c-0.1 0-0.2 0-0.3 0 c-0.2 0-0.3-0.2-0.5-0.3c-0.3-0.1-0.4 0.2-0.5 0.2c-0.2 0-0.3-0.2-0.6 0c-0.5 0.3-0.2 0.5-0.8 0.3c-0.3-0.1-0.6 0.1-0.9-0.1 c-0.3-0.2-0.3-0.7-0.1-0.9c-0.1 0.1-0.1-0.2-0.2-0.3c-0.1-0.1-0.4 0-0.6 0c-0.2-0.1-0.4-0.1-0.3-0.3c0.1-0.2 0.7-0.9 0-0.9 c-0.4 0-0.5 0.5-0.8 0.6c-0.4 0.1-0.8-0.1-1-0.4c-0.5-0.8 0.3-1.7 1-1.8c0.6-0.1 1.4-0.5 1.8 0.2c0.1 0.2 0.4 0.9 0.6 0.4 c0-0.1-0.1-0.8-0.2-1c0 0 0 0 0 0c0 0 0-0.1 0-0.1c0 0 0 0 0 0.1c0.1-0.2 0.3-0.3 0.5-0.5c0 0 0 0-0.1 0.1c0.1-0.1 0.5-0.3 0.6-0.5 c0-0.1-0.1-0.3 0-0.4c0.1-0.1 0.2-0.1 0.3-0.2c0.1-0.1 0.1-0.3 0.2-0.4c0.1-0.1 0.3-0.1 0.4-0.2c0.2-0.2 0.3-0.5 0.6-0.6 c0.3-0.2 0.5-0.5 0.9-0.3c-0.1 0.1-0.4 0.2-0.5 0.3c-0.1 0.1 0.4 0 0.5 0c0.3-0.1 0.5-0.3 0.8-0.5c0.4-0.3 0.9-0.3 1.4-0.2 c0.2 0-0.3-0.6-0.3-0.6c-0.2-0.2-0.2-0.4-0.5-0.1c-0.1 0.1-0.2 0.3-0.2 0.4C28.9 19 29 19 28.6 19.2c0 0 0 0 0.1 0 c-0.3 0.1-0.6 0.2-0.7-0.2c0-0.1 0.1-0.3 0-0.4c-0.2-0.3-0.9 0.3-1.1 0.4c0.1-1 1.3-0.5 1.9-0.7c0.2-0.1 0.8-0.3 0.8-0.4 c0.1-0.2-0.5-0.6-0.6-0.7c-0.3-0.2-0.4-0.4-0.6-0.7c-0.2-0.4-0.3-0.8-0.7-0.5c-0.2 0.1 0 0.3-0.3 0.4c-0.2 0-0.3-0.2-0.4-0.3 c-0.1-0.1-0.3-0.5-0.5-0.5c-0.2 0-0.8-0.4-1.1-0.1c-0.2 0.2 0 0.8 0.1 1c0.1 0.5 0.2 0.5-0.2 0.8c-0.2 0.1-0.3 0-0.2 0.4 c0 0.2 0.3 0.2 0.1 0.4c-0.1 0.1-0.3 0.1-0.4 0c-0.3-0.2 0-0.4-0.2-0.6c-0.1-0.2-0.8-0.3-1-0.4c-0.5-0.2-1.8-0.5-1.4-1.3 c0.1-0.2 0.5-0.5 0.7-0.6c0.2-0.1 0.4-0.2 0.6-0.3c0.1-0.1 0.1-0.4 0.2-0.4c0.1-0.1 0.5-0.1 0.6 0c0.8-0.2 0.1-1.3 1.1-1.1 c0.3 0.1 0.6 0.3 0.8 0.5c0.3 0.2 0.3 0.2 0.3 0.4c0 0.1-0.3 0.3-0.4 0.4c-0.1 0.1-0.4 0.2-0.5 0.2c0.5 0 0.8 0 1.2 0.3 c0.4 0.2 0.6 0.4 1.1 0.4c0-0.2-0.4-0.1-0.4-0.4c0-0.2 0.3 0.1 0.3 0.1c0.1 0 0.5 0.2 0.4-0.2c-0.1-0.3-0.7-0.2-0.5-0.7 c0.3 0 0.2 0.3 0.4 0.4c0.2 0.1 0.5-0.2 0.5-0.4c-0.3-0.2-1.2-0.4-1.1-0.8c0.6 0.4 1.2 0.8 1.9 1.2c-0.5 0.4 0.4 0.2 0.4 0.2 c0.1 0 0.5 0.4 0.3 0.4c-0.3 0.1-0.4-0.3-0.6 0c0.2 0.1 1 0.1 0.8 0.5c-0.1 0.2-0.6 0.1-0.7 0.5c0.1 0 0.2 0 0.3 0 c-0.2 0.4 0.1 0.6 0.3 0.9c0.2 0.3 0.5 0.8 0.9 0.9c0.9 0.2 0.8-1.3 1.5-1.5c0.2-0.1 0.4 0 0.6-0.1c0.2-0.1 0.3-0.2 0.5-0.3 c0.4-0.3 0.8-0.3 1.3-0.3c0 0 0 0 0 0c-1.9-2-4.3-3.4-7.1-3.9C27.3 11.9 27 12 26.8 12.2z"/><path fill="#D3D3D3" d="M24.2 14.2C24.2 14.2 24.2 14.2 24.2 14.2C24.2 14.2 24.2 14.2 24.2 14.2L24.2 14.2z"/><path fill="#D3D3D3" d="M37.2 21.9c0.1 0.1 0.2 0.3 0.3 0.4c0.1 0.1 0.2 0.2 0.4 0.2c0 0 0.3 0 0.3-0.1c0 0 0 0 0 0 c-0.1-0.7-0.3-1.3-0.5-1.9c0 0 0 0.1-0.1 0.1c-0.1 0.1-0.2 0.1-0.2 0.2c-0.1 0.1-0.1 0.1-0.1 0.2c0 0-0.1 0.1-0.1 0.1 c-0.1 0.1 0 0.3 0 0.4C37.2 21.7 37.1 21.8 37.2 21.9z"/><path fill="#D3D3D3" d="M36.6 27.2c0.2 0.3 0.5 0.6 0.8 0.8c0.2 0.2 0.4 0.4 0.7 0.4c0.3-1.1 0.5-2.3 0.5-3.5c0-0.7-0.1-1.4-0.2-2 c-0.2 0.1-0.4 0.4-0.5 0.5c-0.1 0.2-0.1 0.3-0.3 0.5c-0.2 0.2-0.4 0.2-0.5 0.4c-0.1 0.2-0.1 0.3-0.2 0.5c-0.1 0.1-0.2 0.1-0.2 0.3 c-0.1 0.3 0 0.7 0 1C36.5 26.6 36.4 26.9 36.6 27.2z"/><g><path fill="#D3D3D3" d="M24.7 22.4C24.7 22.4 24.7 22.4 24.7 22.4C24.7 22.4 24.7 22.4 24.7 22.4C24.7 22.4 24.7 22.4 24.7 22.4z"/></g><g><polygon fill="#D3D3D3" points="30.5,28.8 30.5,28.8 30.5,28.8"/></g><g><path fill="#D3D3D3" d="M30.7 28.8c0 0-0.1 0-0.2 0C30.5 28.9 30.5 28.9 30.7 28.8z"/></g></g></svg>